# xmcd
#
# Track frame offsets: 
#        150
#        20651
#        42214
#        64826
#        86426
#        110051
#        133751
#        154338
#        174288
#        193338
#        209313
#        231176
#        254088
#        277376
#        297326
#        314612
#
# Disc length: 4491 seconds
#
# Revision: 1
# Processed by: cddbd v1.5.2PL0 Copyright (c) Steve Scherf et al.
# Submitted via: ExactAudioCopyFreeDBPlugin 1.0
#
DISCID=01118910
DTITLE=張信哲 - 情歌精選 Disc 1
DYEAR=2005
DGENRE=Pop
TTITLE0=愛如潮水
TTITLE1=別怕我傷心
TTITLE2=過火
TTITLE3=太想愛你
TTITLE4=我是真的愛你
TTITLE5=寬容
TTITLE6=從開始到現在
TTITLE7=愛轉動
TTITLE8=信仰
TTITLE9=到處留情
TTITLE10=習慣寂寞
TTITLE11=日出之前請將悲傷終結
TTITLE12=受罪
TTITLE13=惹塵
TTITLE14=放手
TTITLE15=臨別一眼
EXTD=
EXTT0=
EXTT1=
EXTT2=
EXTT3=
EXTT4=
EXTT5=
EXTT6=
EXTT7=
EXTT8=
EXTT9=
EXTT10=
EXTT11=
EXTT12=
EXTT13=
EXTT14=
EXTT15=
PLAYORDER=
